<svg width="35" height="35" viewBox="0 0 35 35" fill="none" xmlns="http://www.w3.org/2000/svg">
<g clip-path="url(#clip0_2_4125)">
<path d="M17.0884 28.3032H7.58049C6.30037 28.3032 5.25 27.2638 5.25 25.9728V12.0227C5.25 10.7426 6.28942 9.69218 7.58049 9.69218H28.1719C29.4521 9.69218 30.5024 10.7316 30.5024 12.0227V25.9728C30.5024 27.2529 29.463 28.3032 28.1719 28.3032L26.6292 28.3142" stroke="#666666" stroke-miterlimit="10" stroke-linecap="round" stroke-linejoin="round"/>
<path d="M14.0139 7.50387V7.09904C14.0139 6.08151 14.8892 5.24997 15.9614 5.24997H19.769C20.8522 5.24997 21.7165 6.08151 21.7165 7.09904V7.50387" stroke="#666666" stroke-miterlimit="10" stroke-linecap="round" stroke-linejoin="round"/>
<path d="M26.4322 20.36C26.4322 22.8765 21.8478 29.8132 21.8478 29.8132C21.8478 29.8132 17.2634 22.8874 17.2634 20.36C17.2634 17.8435 19.3204 15.7975 21.8478 15.7975C24.3752 15.8084 26.4322 17.8435 26.4322 20.36Z" stroke="#666666" stroke-miterlimit="10" stroke-linecap="round" stroke-linejoin="round"/>
<path d="M21.8478 21.1585C21.2242 21.1585 20.71 20.6552 20.71 20.0316C20.71 19.4079 21.2132 18.9046 21.8478 18.9046C22.4715 18.9046 22.9857 19.4079 22.9857 20.0316C22.9748 20.6552 22.4715 21.1585 21.8478 21.1585Z" stroke="#666666" stroke-miterlimit="10" stroke-linecap="round" stroke-linejoin="round"/>
</g>
<defs>
<clipPath id="clip0_2_4125">
<rect width="35" height="35" fill="white"/>
</clipPath>
</defs>
</svg>
