<svg width="26" height="25" viewBox="0 0 26 25" fill="none" xmlns="http://www.w3.org/2000/svg">
<g clip-path="url(#clip0_53_239)">
<path d="M20.8975 19.2275L16.9325 15.2625C17.81 14.125 18.3625 12.695 18.3625 11.135C18.3625 7.3975 15.34 4.375 11.6025 4.375C7.865 4.375 4.875 7.3975 4.875 11.1025C4.875 14.8075 7.8975 17.83 11.6025 17.83C13.1625 17.83 14.5925 17.2775 15.73 16.4L19.695 20.365C20.02 20.69 20.54 20.69 20.865 20.365C21.19 20.0725 21.19 19.52 20.8975 19.2275ZM6.2725 11.1025C6.2725 8.145 8.6775 5.74 11.635 5.74C14.5925 5.74 16.9975 8.145 16.9975 11.1025C16.9975 14.06 14.5925 16.465 11.635 16.465C8.6775 16.465 6.2725 14.06 6.2725 11.1025Z" fill="#EC4C60"/>
</g>
<defs>
<clipPath id="clip0_53_239">
<rect width="16.25" height="16.25" fill="white" transform="translate(4.875 4.375)"/>
</clipPath>
</defs>
</svg>
